<svg width="512" height="512" viewBox="0 0 512 512" fill="none" xmlns="http://www.w3.org/2000/svg">
<rect x="263" width="138.593" height="138.593" rx="24" transform="rotate(45 263 0)" fill="url(#paint0_linear)"/>
<path d="M257.595 49.4455L244.378 76.2173L214.808 80.5243C209.505 81.2926 207.38 87.8238 211.225 91.5646L232.619 112.392L227.559 141.812C226.648 147.13 232.254 151.114 236.95 148.626L263.403 134.735L289.857 148.626C294.553 151.093 300.159 147.13 299.248 141.812L294.188 112.392L315.582 91.5646C319.427 87.8238 317.302 81.2926 311.999 80.5243L282.429 76.2173L269.212 49.4455C266.844 44.6735 259.983 44.6129 257.595 49.4455Z" fill="#FFE266"/>
<path d="M258.684 61.9482L248.844 81.7716L226.828 84.9607C222.88 85.5297 221.298 90.3657 224.161 93.1356L240.089 108.557L236.322 130.342C235.644 134.28 239.818 137.229 243.314 135.388L263.009 125.102L282.704 135.388C286.2 137.214 290.375 134.28 289.696 130.342L285.929 108.557L301.857 93.1356C304.72 90.3657 303.138 85.5297 299.19 84.9607L277.174 81.7716L267.334 61.9482C265.571 58.4148 260.462 58.3698 258.684 61.9482Z" fill="#FFCF00"/>
<g clip-path="url(#clip0)">
<path d="M255.968 256.182L142.902 131.578L71.7715 132.999L70.3506 204.145L198.004 320.022" fill="#C7CDE4"/>
<path d="M256.726 374.186L296.321 409.392L348.113 357.591L314.689 321.539" fill="#C7CDE4"/>
<path d="M165.341 357.59L370.549 131.578L441.679 132.999L443.1 204.145L217.13 409.391L165.341 357.59Z" fill="#EDE6F5"/>
<path d="M401.681 180.58C401.189 180.58 400.695 180.532 400.204 180.435C399.718 180.337 399.238 180.192 398.786 180.003C398.33 179.813 397.883 179.579 397.474 179.307C397.066 179.026 396.672 178.715 396.323 178.36C394.914 176.948 394.103 175.003 394.103 173.008C394.103 172.507 394.156 172.016 394.254 171.525C394.351 171.039 394.496 170.56 394.686 170.107C394.875 169.651 395.109 169.204 395.381 168.795C395.657 168.378 395.973 167.993 396.323 167.644C396.672 167.294 397.063 166.978 397.474 166.702C397.883 166.43 398.33 166.196 398.786 166.007C399.238 165.817 399.715 165.672 400.204 165.575C401.18 165.376 402.187 165.376 403.167 165.575C403.649 165.672 404.12 165.817 404.582 166.007C405.038 166.196 405.476 166.43 405.887 166.702C406.302 166.978 406.689 167.294 407.039 167.644C407.385 167.993 407.705 168.378 407.986 168.795C408.258 169.204 408.492 169.651 408.682 170.107C408.871 170.56 409.016 171.039 409.114 171.525C409.211 172.016 409.259 172.507 409.259 173.008C409.259 175.003 408.454 176.948 407.036 178.36C406.689 178.715 406.302 179.026 405.884 179.307C405.476 179.579 405.038 179.813 404.582 180.003C404.126 180.192 403.649 180.337 403.164 180.435C402.672 180.532 402.181 180.58 401.681 180.58Z" fill="black"/>
<path d="M127.056 372.055L202.665 447.679C208.018 453.031 216.694 453.031 222.043 447.679L229.041 440.678C234.39 435.329 234.39 426.656 229.041 421.307L153.431 345.682C148.079 340.33 139.403 340.33 134.054 345.682L127.056 352.68C121.707 358.032 121.707 366.705 127.056 372.055Z" fill="#52607E"/>
<path d="M74.3383 451.703L123.034 500.41C128.386 505.762 137.062 505.762 142.411 500.41L149.409 493.409C154.758 488.06 154.758 479.387 149.409 474.038L100.711 425.33C95.3617 419.978 86.6853 419.978 81.3362 425.33L74.3383 432.328C68.9862 437.68 68.9862 446.354 74.3383 451.703Z" fill="#FF6B6B"/>
<path d="M101.773 426.412L141.588 386.609L188.129 433.162L148.314 472.965L101.773 426.412Z" fill="#FFE266"/>
<path d="M111.772 180.58C111.272 180.58 110.778 180.532 110.286 180.435C109.801 180.337 109.324 180.192 108.869 180.003C108.416 179.813 107.975 179.579 107.566 179.307C107.149 179.026 106.761 178.715 106.414 178.36C106.056 178.01 105.745 177.623 105.467 177.208C105.195 176.797 104.958 176.359 104.769 175.903C104.579 175.45 104.437 174.97 104.336 174.485C104.239 173.993 104.194 173.502 104.194 173.002C104.194 172.507 104.239 172.016 104.336 171.525C104.437 171.039 104.579 170.56 104.769 170.107C104.958 169.651 105.195 169.213 105.467 168.795C105.745 168.387 106.056 167.999 106.414 167.644C106.761 167.294 107.149 166.984 107.566 166.702C107.975 166.43 108.416 166.196 108.869 166.007C109.324 165.817 109.801 165.672 110.286 165.575C111.263 165.376 112.273 165.376 113.25 165.575C113.735 165.672 114.212 165.817 114.668 166.007C115.12 166.196 115.562 166.43 115.976 166.702C116.387 166.984 116.781 167.294 117.13 167.644C117.477 167.999 117.797 168.387 118.069 168.795C118.341 169.213 118.578 169.651 118.767 170.107C118.957 170.56 119.099 171.039 119.197 171.525C119.297 172.016 119.351 172.507 119.351 173.002C119.351 173.502 119.297 173.993 119.197 174.485C119.099 174.97 118.957 175.45 118.767 175.903C118.578 176.359 118.341 176.797 118.069 177.208C117.797 177.623 117.477 178.01 117.13 178.36C116.781 178.715 116.387 179.026 115.976 179.307C115.562 179.579 115.12 179.813 114.668 180.003C114.212 180.192 113.735 180.337 113.25 180.435C112.755 180.532 112.264 180.58 111.772 180.58Z" fill="black"/>
<path d="M386.35 372.099L310.826 447.637C305.453 453.01 296.741 453.01 291.366 447.637L284.453 440.722C279.081 435.35 279.081 426.635 284.453 421.259L359.98 345.723C365.353 340.347 374.065 340.347 379.438 345.723L386.35 352.635C391.725 358.011 391.725 366.726 386.35 372.099Z" fill="#52607E"/>
<path d="M439.115 451.703L390.417 500.41C385.068 505.762 376.391 505.762 371.042 500.41L364.044 493.409C358.692 488.06 358.692 479.387 364.044 474.038L412.74 425.33C418.092 419.978 426.768 419.978 432.117 425.33L439.115 432.328C444.464 437.68 444.464 446.354 439.115 451.703Z" fill="#FF6B6B"/>
<path d="M325.311 433.13L371.848 386.578L411.663 426.381L365.125 472.933L325.311 433.13Z" fill="#FFE266"/>
<path d="M444.476 426.971L437.476 419.97C433.459 415.95 428.115 413.736 422.432 413.736C418.826 413.736 415.36 414.627 412.281 416.302L382.576 386.594L391.711 377.459C400.029 369.137 400.029 355.597 391.711 347.279L384.799 340.364C380.77 336.332 375.409 334.112 369.71 334.112C364.009 334.112 358.651 336.332 354.622 340.364L348.32 346.667L325.07 321.591L448.197 209.754C449.817 208.283 450.723 206.181 450.678 203.993L449.254 132.848C449.174 128.783 445.897 125.503 441.83 125.423L370.699 124.002C368.479 123.946 366.407 124.864 364.939 126.483L256.693 245.703L148.515 126.486C147.043 124.864 144.927 123.955 142.751 124.002L71.6202 125.423C67.5529 125.503 64.2759 128.783 64.196 132.848L62.7751 203.993C62.7307 206.181 63.6365 208.283 65.2587 209.754L188.093 321.259L165.074 346.607L158.79 340.323C154.773 336.303 149.429 334.089 143.743 334.089C138.059 334.089 132.716 336.303 128.696 340.323L121.698 347.321C113.404 355.618 113.404 369.117 121.698 377.411L130.878 386.591L101.172 416.302C98.0934 414.627 94.627 413.736 91.0244 413.736C85.3378 413.736 79.9946 415.95 75.9747 419.97L68.9767 426.968C60.6822 435.266 60.6822 448.764 68.9767 457.059L117.675 505.766C121.695 509.786 127.038 512 132.722 512C138.408 512 143.752 509.786 147.769 505.766L154.77 498.765C161.578 491.957 162.798 481.64 158.425 473.574L188.134 443.859L197.308 453.036C201.328 457.056 206.671 459.27 212.355 459.27C218.041 459.27 223.384 457.056 227.401 453.036L234.402 446.035C242.694 437.74 242.694 424.242 234.402 415.947L228.112 409.654L256.358 383.998L285.279 409.713L279.095 415.9C270.777 424.221 270.777 437.761 279.095 446.079L286.008 452.994C290.036 457.026 295.394 459.246 301.096 459.246C306.794 459.246 312.155 457.026 316.184 452.994L325.316 443.859L355.025 473.574C350.653 481.64 351.872 491.957 358.684 498.768L365.679 505.766C369.699 509.786 375.042 512 380.728 512C386.412 512 391.755 509.786 395.775 505.766L444.474 457.059C452.771 448.764 452.771 435.266 444.476 426.971ZM337.595 357.391L322.217 372.773L296.756 347.306L313.851 331.78L337.595 357.391ZM77.9965 200.849L79.2043 140.432L139.607 139.224L246.456 256.975L227.413 277.951L138.654 189.177C135.697 186.217 130.898 186.217 127.938 189.177C124.978 192.135 124.978 196.933 127.938 199.893L217.212 289.185L198.282 310.037L77.9965 200.849ZM373.843 139.224L434.249 140.432L435.457 200.849L217.384 398.926L201.952 383.492L385.515 199.893C388.472 196.933 388.472 192.135 385.515 189.174C382.555 186.217 377.756 186.217 374.796 189.177L191.233 372.773L175.802 357.338L373.843 139.224ZM144.051 488.049L137.053 495.05C135.895 496.207 134.359 496.844 132.722 496.844C131.088 496.844 129.549 496.207 128.394 495.05L79.6957 446.343C77.3097 443.957 77.3097 440.073 79.6957 437.684L86.6936 430.686C87.851 429.529 89.3874 428.892 91.0244 428.892C92.6584 428.892 94.1948 429.529 95.3522 430.686L96.4238 431.755C96.4238 431.758 96.4268 431.761 96.4297 431.761L142.97 478.313C142.973 478.316 142.976 478.316 142.979 478.319L144.051 479.393C146.437 481.779 146.437 485.663 144.051 488.049ZM148.328 462.236L112.504 426.406L141.594 397.31L177.418 433.143L148.328 462.236ZM223.683 435.319L216.685 442.32C215.528 443.474 213.992 444.114 212.355 444.114C210.721 444.114 209.181 443.477 208.027 442.32L132.414 366.695C130.028 364.309 130.028 360.426 132.414 358.04L139.415 351.039C140.569 349.884 142.109 349.245 143.743 349.245C145.377 349.245 146.916 349.881 148.074 351.039L223.683 426.663C226.069 429.049 226.069 432.933 223.683 435.319ZM267.642 373.749L285.522 357.507L311.501 383.492L296.016 398.979L267.642 373.749ZM305.468 442.278C304.299 443.448 302.748 444.09 301.096 444.09C299.447 444.09 297.893 443.448 296.726 442.278L289.814 435.366C287.402 432.954 287.402 429.028 289.814 426.619L365.338 351.08C366.505 349.911 368.059 349.269 369.707 349.269C371.359 349.269 372.913 349.911 374.08 351.08L380.992 357.992C383.404 360.405 383.404 364.327 380.992 366.74L305.468 442.278ZM371.86 397.31L400.95 426.406L365.122 462.236L336.035 433.143L371.86 397.31ZM433.758 446.343L385.059 495.05C383.902 496.207 382.365 496.844 380.728 496.844C379.094 496.844 377.558 496.207 376.401 495.05L369.403 488.052C367.017 485.663 367.017 481.782 369.4 479.393L370.474 478.322C370.474 478.319 370.477 478.316 370.48 478.313L418.098 430.686C419.255 429.532 420.795 428.892 422.429 428.892C424.063 428.892 425.602 429.529 426.76 430.686L433.755 437.687C436.143 440.073 436.143 443.957 433.758 446.343Z" fill="black"/>
</g>
<path d="M440.764 294.705L434.539 307.374L420.612 309.412C418.114 309.776 417.114 312.867 418.925 314.637L429.001 324.493L426.618 338.416C426.189 340.933 428.829 342.818 431.041 341.641L443.5 335.067L455.959 341.641C458.171 342.809 460.811 340.933 460.382 338.416L457.999 324.493L468.075 314.637C469.886 312.867 468.886 309.776 466.388 309.412L452.461 307.374L446.236 294.705C445.121 292.446 441.889 292.417 440.764 294.705Z" fill="#FFCF00"/>
<path d="M67.7641 294.705L61.5393 307.374L47.612 309.412C45.1144 309.776 44.1135 312.867 45.9247 314.637L56.0008 324.493L53.6176 338.416C53.1886 340.933 55.8292 342.818 58.0408 341.641L70.5 335.067L82.9592 341.641C85.1708 342.809 87.8114 340.933 87.3824 338.416L84.9992 324.493L95.0753 314.637C96.8865 312.867 95.8856 309.776 93.388 309.412L79.4607 307.374L73.2359 294.705C72.1206 292.446 68.889 292.417 67.7641 294.705Z" fill="#FFCF00"/>
<defs>
<linearGradient id="paint0_linear" x1="396.581" y1="5.02401" x2="263.006" y2="138.599" gradientUnits="userSpaceOnUse">
<stop offset="0.473958" stop-color="#FF6B6B"/>
<stop offset="0.474058" stop-color="#FF5252"/>
</linearGradient>
<clipPath id="clip0">
<rect x="62" y="124" width="388" height="388" fill="white"/>
</clipPath>
</defs>
</svg>
