<svg width="358" height="61" viewBox="0 0 358 61" fill="none" xmlns="http://www.w3.org/2000/svg">
<path d="M88.9738 59.5611C92.6458 58.9501 95.0938 54.0531 93.8698 50.3811C92.6448 47.3201 91.4218 43.6491 90.1978 39.9771C111.618 58.3361 170.37 47.3211 193.626 46.0981C246.258 43.0371 299.502 39.9771 351.522 33.2441C359.478 32.0211 359.478 21.6171 351.522 21.0041C306.234 17.3321 259.11 25.2891 214.434 28.3501C176.49 30.7971 130.59 38.1411 93.2578 27.7371C91.4218 27.1261 89.5858 27.7371 87.7498 28.9621C87.1378 23.4541 87.1378 17.3331 87.7498 11.8251C88.9738 4.48109 79.7938 0.809104 76.1218 5.7061C68.1658 -12.0419 14.9218 16.7221 3.90475 22.8411C-0.991245 25.2901 -1.60325 33.8591 3.90475 36.3061C28.9978 47.3221 54.7018 56.5011 82.2418 60.1731C85.3018 61.3971 87.7508 60.7851 88.9738 59.5611ZM55.9258 17.3321C57.7618 16.7211 70.0018 14.2731 74.8978 10.6021C73.0618 19.7821 71.8378 33.2451 74.8978 43.6491C58.3748 40.5881 43.0747 35.0811 27.1628 29.5731C36.9548 24.6761 46.1338 21.0041 55.9258 17.3321Z" fill="white"/>
</svg>
