<svg width="377" height="72" viewBox="0 0 377 72" fill="none" xmlns="http://www.w3.org/2000/svg">
<path d="M293.62 69.7467C294.232 69.1347 294.844 68.5227 294.844 67.9107C304.024 66.6867 314.428 61.7907 322.384 59.3427C338.296 54.4467 354.82 50.1627 370.732 45.8787C378.688 44.0427 377.464 33.6387 370.732 31.1907C345.028 21.3987 319.936 12.2187 294.844 1.20274C291.172 -0.633263 288.112 1.81473 287.5 4.87473C286.276 5.48673 285.052 6.71073 284.44 9.15873C283.828 17.7267 283.216 26.9067 282.604 35.4747C244.66 23.2347 198.76 26.9067 159.592 27.5187C108.795 28.1307 57.3885 29.3547 5.98047 33.0267C-1.97553 33.6387 -1.97553 44.6547 5.98047 45.2667C53.7165 48.3267 101.452 44.6547 149.188 44.0427C193.864 43.4307 237.928 49.5507 281.992 49.5507C280.768 56.8947 279.544 66.0747 284.44 70.3587C287.5 72.1947 291.172 72.1947 293.62 69.7467ZM296.068 45.8787C295.456 34.8627 295.456 23.2347 294.232 12.2187C310.144 22.0107 327.28 29.9667 344.416 37.3107C335.848 39.7587 327.28 42.2067 318.712 44.0427C312.592 45.8787 303.412 47.1027 296.068 50.1627C296.068 48.3267 296.068 47.1027 296.068 45.8787Z" fill="white"/>
</svg>
