<svg width="512" height="512" viewBox="0 0 512 512" fill="none" xmlns="http://www.w3.org/2000/svg">
<path d="M257.109 31.0006L257.108 31.0006C255.356 30.9862 253.612 31.0061 251.876 31.0596L251.907 32.0591C248.423 32.1664 244.973 32.4102 241.562 32.7854L241.453 31.7914C237.966 32.1749 234.521 32.6946 231.122 33.3451L231.31 34.3272C227.894 34.9811 224.525 35.768 221.208 36.6825L220.943 35.7185C217.569 36.6487 214.25 37.7099 210.991 38.8963L211.333 39.8359C208.072 41.0233 204.87 42.337 201.736 43.7711L201.32 42.8618C198.143 44.3153 195.034 45.8916 191.999 47.5847L192.486 48.458C189.461 50.1456 186.509 51.9501 183.638 53.8653L183.083 53.0334C180.181 54.9694 177.36 57.0178 174.626 59.1722L175.245 59.9576C172.528 62.0992 169.898 64.3465 167.361 66.6933L166.682 65.9592C164.124 68.3252 161.66 70.7915 159.297 73.352L160.032 74.0303C157.688 76.5696 155.443 79.2023 153.304 81.9221L152.518 81.3039C150.367 84.0396 148.322 86.8628 146.388 89.7673L147.221 90.3214C145.309 93.1944 143.507 96.1475 141.822 99.1748L140.949 98.6885C139.259 101.725 137.685 104.835 136.234 108.014L137.144 108.429C135.713 111.565 134.402 114.767 133.217 118.03L132.277 117.688C131.093 120.948 130.034 124.268 129.106 127.642L130.07 127.907C129.158 131.223 128.373 134.593 127.721 138.01L126.738 137.822C126.089 141.221 125.571 144.667 125.189 148.153L126.183 148.262C125.808 151.673 125.565 155.123 125.458 158.607L124.459 158.577C124.405 160.313 124.386 162.057 124.4 163.809L124.4 163.809C124.415 165.517 124.464 167.219 124.547 168.913L125.546 168.864C125.713 172.254 126.016 175.615 126.451 178.942L125.46 179.072C125.903 182.459 126.48 185.81 127.188 189.121L128.166 188.912C128.873 192.224 129.711 195.494 130.673 198.717L129.715 199.003C130.69 202.269 131.792 205.487 133.014 208.651L133.947 208.29C135.166 211.443 136.505 214.542 137.959 217.581L137.057 218.012C138.526 221.082 140.112 224.092 141.807 227.034L142.674 226.534C144.359 229.46 146.155 232.318 148.054 235.104L147.228 235.667C149.144 238.477 151.164 241.213 153.283 243.869L154.064 243.245C156.169 245.884 158.371 248.442 160.664 250.916L159.931 251.596C162.242 254.088 164.646 256.494 167.135 258.808L167.816 258.075C170.287 260.372 172.844 262.576 175.48 264.683L174.855 265.465C177.509 267.586 180.243 269.609 183.051 271.528L183.615 270.702C186.399 272.604 189.256 274.403 192.179 276.091L191.679 276.957C194.62 278.656 197.627 280.244 200.696 281.716L201.128 280.814C204.166 282.271 207.264 283.613 210.415 284.834L210.054 285.766C213.217 286.991 216.434 288.096 219.699 289.073L219.986 288.115C223.209 289.079 226.479 289.919 229.79 290.628L229.58 291.606C232.891 292.315 236.242 292.894 239.629 293.338L239.759 292.347C243.086 292.783 246.447 293.087 249.837 293.254L249.788 294.253C251.482 294.336 253.184 294.386 254.891 294.401C256.644 294.415 258.388 294.395 260.124 294.342L260.093 293.342C263.577 293.235 267.027 292.991 270.438 292.616L270.547 293.61C274.034 293.226 277.479 292.707 280.878 292.056L280.69 291.074C284.106 290.42 287.475 289.633 290.792 288.719L291.058 289.683C294.431 288.753 297.75 287.691 301.009 286.505L300.667 285.565C303.928 284.378 307.13 283.064 310.264 281.63L310.68 282.539C313.857 281.086 316.966 279.51 320.001 277.817L319.514 276.943C322.539 275.256 325.491 273.451 328.362 271.536L328.917 272.368C331.819 270.432 334.64 268.383 337.374 266.229L336.755 265.444C339.472 263.302 342.102 261.055 344.639 258.708L345.319 259.442C347.876 257.076 350.34 254.61 352.703 252.049L351.968 251.371C354.312 248.832 356.557 246.199 358.696 243.479L359.482 244.097C361.633 241.362 363.678 238.538 365.612 235.634L364.779 235.08C366.691 232.207 368.493 229.254 370.178 226.226L371.051 226.713C372.741 223.676 374.315 220.566 375.766 217.387L374.856 216.972C376.287 213.837 377.598 210.634 378.783 207.372L379.723 207.713C380.907 204.453 381.966 201.134 382.894 197.76L381.93 197.494C382.842 194.178 383.627 190.808 384.28 187.391L385.262 187.579C385.911 184.18 386.429 180.734 386.811 177.248L385.817 177.139C386.192 173.728 386.435 170.278 386.542 166.794L387.541 166.825C387.595 165.089 387.614 163.344 387.6 161.592C387.585 159.884 387.536 158.183 387.453 156.488L386.454 156.537C386.287 153.147 385.984 149.786 385.549 146.459L386.54 146.329C386.097 142.942 385.52 139.591 384.812 136.28L383.834 136.489C383.127 133.178 382.289 129.907 381.327 126.684L382.285 126.398C381.31 123.132 380.208 119.914 378.986 116.751L378.053 117.111C376.834 113.958 375.495 110.859 374.041 107.821L374.943 107.389C373.474 104.319 371.888 101.31 370.193 98.3677L369.326 98.867C367.641 95.9417 365.845 93.0832 363.946 90.2975L364.772 89.7342C362.856 86.9245 360.836 84.1885 358.717 81.5324L357.936 82.1559C355.831 79.5177 353.629 76.9588 351.336 74.4854L352.069 73.8054C349.758 71.3132 347.354 68.9072 344.865 66.5936L344.184 67.3261C341.713 65.0296 339.156 62.8248 336.52 60.7178L337.145 59.9367C334.491 57.8152 331.757 55.7921 328.949 53.8737L328.385 54.6994C325.601 52.7971 322.744 50.9986 319.821 49.31L320.321 48.4441C317.381 46.7456 314.373 45.1573 311.304 43.6855L310.872 44.5871C307.834 43.1302 304.736 41.7883 301.585 40.5675L301.946 39.635C298.783 38.4098 295.566 37.3056 292.301 36.3284L292.014 37.2864C288.791 36.3219 285.521 35.4822 282.21 34.7731L282.42 33.7953C279.109 33.0863 275.758 32.507 272.371 32.0631L272.242 33.0546C268.914 32.6184 265.553 32.314 262.163 32.147L262.213 31.1482C260.518 31.0648 258.816 31.0153 257.109 31.0006ZM235.599 92.052C238.954 91.0731 242.406 90.3288 245.935 89.8383L246.073 90.8288C247.785 90.5907 249.516 90.4132 251.264 90.2986C252.991 90.1894 254.705 90.141 256.406 90.1513L256.412 89.1513C259.936 89.1726 263.402 89.4426 266.792 89.9448L266.646 90.934C270.072 91.4414 273.42 92.189 276.672 93.1592L276.958 92.2009C280.31 93.2008 283.562 94.4339 286.696 95.8815L286.277 96.7893C289.4 98.2324 292.405 99.8915 295.27 101.748L295.814 100.908C298.735 102.801 301.515 104.895 304.132 107.172L303.475 107.926C306.061 110.176 308.486 112.606 310.731 115.196L311.487 114.541C313.758 117.162 315.848 119.945 317.735 122.871L316.895 123.413C318.746 126.281 320.4 129.288 321.839 132.415L322.747 131.997C324.19 135.132 325.418 138.386 326.414 141.74L325.456 142.025C326.422 145.278 327.166 148.627 327.671 152.054L328.661 151.908C329.16 155.298 329.429 158.764 329.449 162.288L328.449 162.294C328.459 163.995 328.411 165.71 328.302 167.438L328.302 167.438C328.192 169.186 328.019 170.918 327.785 172.632L328.776 172.767C328.294 176.298 327.557 179.751 326.585 183.108L325.624 182.83C324.65 186.193 323.436 189.458 322.002 192.605L322.912 193.02C321.444 196.242 319.749 199.342 317.847 202.299L317.006 201.758C315.121 204.69 313.029 207.48 310.753 210.106L311.509 210.761C309.199 213.427 306.701 215.926 304.037 218.239L303.381 217.484C300.757 219.762 297.969 221.855 295.039 223.744L295.581 224.584C292.626 226.489 289.528 228.188 286.307 229.66L285.891 228.751C282.746 230.189 279.483 231.409 276.121 232.389L276.401 233.349C273.046 234.328 269.594 235.072 266.065 235.563L265.927 234.572C264.214 234.811 262.483 234.988 260.735 235.103C259.008 235.212 257.294 235.26 255.594 235.25L255.588 236.25C252.064 236.229 248.598 235.959 245.208 235.456L245.354 234.467C241.928 233.96 238.58 233.212 235.328 232.242L235.042 233.2C231.69 232.2 228.438 230.967 225.304 229.52L225.723 228.612C222.6 227.169 219.595 225.51 216.73 223.654L216.186 224.493C213.265 222.6 210.485 220.506 207.868 218.229L208.525 217.475C205.939 215.225 203.514 212.796 201.269 210.205L200.513 210.86C198.242 208.239 196.152 205.456 194.265 202.531L195.105 201.989C193.254 199.12 191.6 196.113 190.161 192.986L189.253 193.404C187.81 190.269 186.582 187.015 185.586 183.661L186.544 183.377C185.578 180.123 184.834 176.775 184.329 173.348L183.339 173.493C182.84 170.103 182.571 166.637 182.551 163.113L183.551 163.107C183.541 161.406 183.589 159.691 183.698 157.964L183.698 157.963C183.808 156.215 183.981 154.483 184.215 152.769L183.224 152.634C183.706 149.103 184.443 145.65 185.415 142.293L186.376 142.572C187.35 139.208 188.564 135.943 189.998 132.796L189.088 132.381C190.556 129.159 192.251 126.059 194.153 123.102L194.994 123.643C196.879 120.711 198.971 117.922 201.247 115.295L200.491 114.64C202.801 111.975 205.299 109.475 207.963 107.162L208.619 107.917C211.243 105.64 214.031 103.546 216.961 101.657L216.419 100.817C219.374 98.9125 222.472 97.2135 225.693 95.7409L226.109 96.6503C229.254 95.212 232.517 93.9926 235.879 93.0119L235.599 92.052Z" stroke="#2196F3" stroke-width="2" stroke-dasharray="10 10"/>
<path d="M148.23 260.715L148.225 260.71C147.656 260.111 146.981 259.677 146.261 259.407L145.911 260.344C144.688 259.887 143.308 260.022 142.217 260.72L141.678 259.878C141.026 260.295 140.459 260.871 140.036 261.595L140.032 261.603L137.663 265.75L138.531 266.246L133.794 274.54L132.926 274.044L128.188 282.338L129.056 282.834L124.319 291.127L123.451 290.631L118.713 298.925L119.581 299.421L114.844 307.715L113.976 307.219L109.238 315.513L110.106 316.009L105.369 324.302L104.501 323.806L99.7632 332.1L100.631 332.596L95.894 340.89L95.0257 340.394L90.2882 348.688L91.1565 349.184L86.419 357.477L85.5507 356.981L80.8131 365.275L81.6815 365.771L76.944 374.065L76.0756 373.569L71.3381 381.863L72.2065 382.359L67.469 390.652L66.6006 390.156L64.2319 394.303H64.2319L64.2291 394.308C63.3895 395.798 63.0062 397.382 63.0158 398.927L64.0158 398.921C64.0339 401.84 65.6264 404.581 68.174 406.029L67.6797 406.898C69.018 407.659 70.5845 408.099 72.3002 408.099H77.3065V407.099H87.319V408.099H97.3315V407.099H107.344V408.099H117.356V407.099H127.369V408.099H137.381V407.099H147.394V408.099H152.4C153.034 408.099 153.657 408.181 154.256 408.337L154.508 407.369C155.889 407.729 157.156 408.439 158.181 409.434L157.484 410.151C157.926 410.58 158.316 411.07 158.643 411.614L158.643 411.614L161.081 415.671L161.938 415.155L166.813 423.268L165.956 423.783L170.831 431.895L171.688 431.38L176.563 439.493L175.706 440.008L180.581 448.12L181.438 447.605L186.313 455.718L185.456 456.233L190.331 464.345L191.188 463.83L196.063 471.943L195.206 472.458L197.641 476.511C198.561 478.053 199.815 479.198 201.235 479.945L201.701 479.06C204.383 480.472 207.713 480.279 210.235 478.578L210.794 479.407C212.124 478.51 213.251 477.241 214.006 475.622L214.011 475.613L216.161 470.883L215.25 470.469L219.55 461.009L220.461 461.423L224.761 451.963L223.85 451.549L228.15 442.089L229.061 442.503L233.361 433.043L232.45 432.629L236.75 423.169L237.661 423.583L241.961 414.123L241.05 413.709L245.35 404.249L246.261 404.663L250.561 395.203L249.65 394.789L253.95 385.329L254.861 385.743L257.011 381.013L257.011 381.013L258.967 376.707L258.056 376.293L261.969 367.68L262.879 368.094L266.792 359.482L265.881 359.068L269.794 350.455L270.704 350.869L274.617 342.257L273.706 341.843L277.619 333.23L278.529 333.644L282.442 325.032L281.531 324.618L285.444 316.005L286.354 316.419L288.306 312.122C288.307 312.12 288.308 312.119 288.309 312.117C288.727 311.218 288.859 310.284 288.752 309.397L287.759 309.517C287.578 308.019 286.542 306.713 285.106 306.182L285.454 305.244C284.624 304.937 283.694 304.84 282.727 305.014C280.52 305.39 278.307 305.728 276.086 306.024L276.218 307.015C271.777 307.605 267.299 308.026 262.758 308.239L262.711 307.24C260.49 307.345 258.254 307.399 256 307.399C254.315 307.399 252.637 307.371 250.965 307.315L250.932 308.314C247.532 308.2 244.161 307.972 240.823 307.634L240.924 306.639C237.565 306.298 234.239 305.845 230.95 305.283L230.782 306.268C227.435 305.696 224.126 305.013 220.86 304.221L221.095 303.249C217.82 302.456 214.587 301.553 211.4 300.545L211.099 301.498C207.866 300.476 204.681 299.346 201.549 298.113L201.915 297.182C198.784 295.95 195.705 294.613 192.683 293.178L192.253 294.081C189.195 292.628 186.194 291.074 183.254 289.423L183.744 288.551C180.813 286.905 177.945 285.162 175.142 283.326L174.594 284.163C171.765 282.309 169.002 280.362 166.312 278.326L166.915 277.529C164.238 275.502 161.631 273.386 159.101 271.186L158.445 271.94C155.894 269.723 153.421 267.42 151.028 265.036L151.734 264.328C150.546 263.143 149.377 261.939 148.23 260.715ZM311.302 297.749C310.851 298.026 310.465 298.38 310.168 298.811L309.345 298.244C309.162 298.509 309.007 298.796 308.881 299.104L306.656 303.968L307.565 304.384L303.095 314.154L302.186 313.738L297.716 323.508L298.625 323.924L294.155 333.694L293.246 333.278L288.776 343.048L289.685 343.464L285.215 353.234L284.306 352.818L279.836 362.588L280.745 363.004L276.275 372.774L275.366 372.358L270.896 382.128L271.805 382.544L267.335 392.314L266.426 391.898L264.191 396.783L264.19 396.785C264.038 397.119 263.923 397.462 263.845 397.812L264.821 398.029C264.693 398.605 264.693 399.193 264.821 399.769L263.845 399.986C263.923 400.336 264.038 400.68 264.19 401.013L264.19 401.013L266.309 405.67L267.219 405.255L271.456 414.568L270.546 414.982L274.784 424.295L275.694 423.88L279.931 433.193L279.021 433.607L283.259 442.92L284.169 442.505L288.406 451.818L287.496 452.232L291.734 461.545L292.644 461.13L296.881 470.443L295.971 470.857L298.088 475.51C298.088 475.51 298.089 475.51 298.089 475.51C298.825 477.145 299.951 478.424 301.289 479.324L301.847 478.494C304.358 480.182 307.701 480.368 310.392 478.957L310.857 479.843C312.281 479.096 313.54 477.952 314.459 476.411L316.895 472.358L316.038 471.843L320.913 463.73L321.77 464.245L326.645 456.133L325.788 455.618L330.663 447.505L331.52 448.02L336.395 439.908L335.538 439.393L340.413 431.28L341.27 431.795L346.145 423.683L345.288 423.168L350.163 415.055L351.02 415.57L353.457 411.514L353.458 411.514C353.784 410.97 354.175 410.48 354.616 410.051L353.92 409.334C354.945 408.339 356.212 407.629 357.593 407.269L357.845 408.237C358.443 408.081 359.066 407.999 359.7 407.999H364.707V406.999H374.719V407.999H384.732V406.999H394.744V407.999H404.757V406.999H414.769V407.999H424.781V406.999H434.794V407.999H439.8C441.508 407.999 443.073 407.551 444.411 406.78L443.912 405.913C446.435 404.46 448.04 401.725 448.071 398.815L449.071 398.826C449.088 397.282 448.711 395.698 447.871 394.208L447.869 394.203L445.5 390.053L444.632 390.549L439.894 382.249L440.762 381.753L436.025 373.453L435.156 373.949L430.419 365.649L431.287 365.153L426.55 356.853L425.681 357.349L420.944 349.049L421.812 348.553L417.075 340.253L416.207 340.749L411.469 332.449L412.337 331.953L407.6 323.653L406.732 324.149L401.994 315.849L402.862 315.353L398.125 307.053L397.257 307.549L392.519 299.249L393.387 298.753L388.65 290.453L387.781 290.949L383.044 282.649L383.912 282.153L379.175 273.853L378.306 274.349L373.569 266.049L374.438 265.553L372.069 261.403L372.049 261.369L372.026 261.336C371.567 260.661 370.971 260.125 370.303 259.739L369.802 260.604C368.686 259.958 367.31 259.816 366.094 260.255L365.753 259.315C365.028 259.577 364.349 260.007 363.775 260.61L364.5 261.299L363.772 260.613C362.557 261.903 361.32 263.172 360.061 264.42L360.765 265.13C358.231 267.64 355.61 270.062 352.905 272.391L352.253 271.633C349.569 273.943 346.802 276.161 343.957 278.278L344.555 279.08C341.696 281.208 338.759 283.236 335.748 285.157L335.21 284.314C332.228 286.216 329.173 288.013 326.048 289.699L326.523 290.579C323.392 292.268 320.191 293.846 316.925 295.306L316.517 294.394C314.903 295.115 313.272 295.808 311.626 296.472C311.332 296.59 311.047 296.731 310.777 296.897L311.302 297.749Z" stroke="#2196F3" stroke-width="2" stroke-dasharray="10 10"/>
</svg>
