<svg width="512" height="512" viewBox="0 0 512 512" fill="none" xmlns="http://www.w3.org/2000/svg">
<g clip-path="url(#clip0)">
<path d="M190.099 380.474C187.927 379.32 168.302 369.195 147.892 369.195C141.612 369.195 135.771 370.162 130.532 372.069C105.276 381.258 91.7638 413.187 90.3096 416.797C87.4402 423.901 90.3993 432.022 97.1595 435.616C99.331 436.77 118.957 446.899 139.366 446.899C139.37 446.899 139.37 446.899 139.37 446.899C145.647 446.899 151.483 445.932 156.723 444.025C181.978 434.832 195.49 402.907 196.949 399.297C199.818 392.197 196.859 384.072 190.099 380.474Z" fill="#80D398"/>
<path d="M135.35 338.9C133.011 335.789 111.697 308.444 84.9177 306.101C83.6468 305.988 82.3446 305.934 81.0425 305.934C55.7054 305.934 32.1655 327.212 29.5651 329.641C23.9628 334.865 23.2104 343.473 27.8185 349.594C30.1616 352.701 51.4754 380.042 78.2511 382.386C79.5181 382.499 80.8242 382.553 82.1263 382.553C82.1263 382.553 82.1263 382.553 82.1302 382.553C107.463 382.553 131.003 361.278 133.604 358.853C139.206 353.625 139.958 345.017 135.35 338.9Z" fill="#80D398"/>
<path d="M103.308 278.078C102.501 274.269 94.7347 240.484 71.4638 227.041C63.5535 222.476 53.7524 220.16 42.3294 220.16C26.618 220.16 12.8598 224.488 11.3432 224.979C4.05668 227.349 -0.26299 234.835 1.32765 242.328C2.13856 246.133 9.90071 279.918 33.1755 293.361C41.0858 297.926 50.8869 300.242 62.3099 300.242C62.3138 300.242 62.3138 300.242 62.3138 300.242C78.0213 300.242 91.7757 295.918 93.2922 295.423C100.579 293.057 104.898 285.571 103.308 278.078Z" fill="#80D398"/>
<path d="M92.676 149.7C77.257 127.68 42.9257 122.897 39.0583 122.425C31.4599 121.493 24.38 126.452 22.6529 133.914C21.7796 137.707 14.5321 171.61 29.9511 193.621C45.3624 215.633 79.6975 220.428 83.5611 220.9C84.1771 220.974 84.7891 221.013 85.3973 221.013C92.2745 221.013 98.3836 216.272 99.9704 209.415C100.848 205.621 108.091 171.715 92.676 149.7Z" fill="#80D398"/>
<path d="M144.586 88.5737C139.92 62.102 110.824 43.2561 107.518 41.1937C101.023 37.1392 92.5164 38.6401 87.799 44.6713C85.4014 47.7395 64.5087 75.4002 69.1753 101.872C73.842 128.336 102.933 147.186 106.24 149.248C108.696 150.784 111.44 151.525 114.158 151.525C118.629 151.525 123.031 149.521 125.963 145.77C128.36 142.702 149.253 115.038 144.586 88.5737Z" fill="#80D398"/>
<path d="M422.69 416.797C421.232 413.187 407.724 381.262 382.468 372.069C377.229 370.162 371.388 369.195 365.108 369.195C344.695 369.195 325.073 379.324 322.901 380.474C316.137 384.072 313.182 392.197 316.051 399.297C317.509 402.907 331.022 434.832 356.277 444.025C361.517 445.932 367.357 446.899 373.63 446.899C394.043 446.899 413.669 436.77 415.84 435.616C422.601 432.022 425.56 423.901 422.69 416.797Z" fill="#00B44B"/>
<path d="M483.435 329.641C480.835 327.212 457.295 305.934 431.954 305.934C430.656 305.934 429.353 305.988 428.079 306.101C401.303 308.444 379.989 335.789 377.646 338.9C373.038 345.017 373.794 353.629 379.397 358.853C381.993 361.278 405.537 382.553 430.874 382.553C432.176 382.553 433.478 382.499 434.753 382.386C461.525 380.042 482.839 352.701 485.182 349.594C489.79 343.473 489.037 334.865 483.435 329.641Z" fill="#00B44B"/>
<path d="M501.657 224.979C500.141 224.488 486.383 220.16 470.671 220.16C459.248 220.16 449.447 222.476 441.537 227.041C418.262 240.484 410.5 274.269 409.693 278.078C408.102 285.571 412.422 293.057 419.708 295.423C421.225 295.918 434.979 300.242 450.691 300.242C462.11 300.242 471.915 297.926 479.825 293.357C503.1 279.918 510.862 246.133 511.673 242.324C513.264 234.835 508.94 227.349 501.657 224.979Z" fill="#00B44B"/>
<path d="M490.343 133.912C488.62 126.451 481.536 121.503 473.938 122.427C470.074 122.899 435.739 127.686 420.324 149.702C404.909 171.717 412.153 205.62 413.03 209.413C414.617 216.275 420.722 221.015 427.603 221.015C428.207 221.015 428.823 220.976 429.439 220.902C433.303 220.427 467.634 215.635 483.049 193.624C498.468 171.612 491.221 137.706 490.343 133.912Z" fill="#00B44B"/>
<path d="M425.201 44.6724C420.484 38.6373 411.973 37.1402 405.478 41.1948C402.176 43.2572 373.084 62.1031 368.414 88.5708C363.747 115.039 384.64 142.703 387.037 145.771C389.969 149.526 394.371 151.526 398.842 151.526C401.564 151.526 404.308 150.785 406.764 149.249C410.066 147.187 439.158 128.337 443.829 101.873C448.491 75.4013 427.599 47.7406 425.201 44.6724Z" fill="#00B44B"/>
<path d="M445.283 236.217C445.283 202.494 436.277 169.39 419.244 140.486C402.714 112.443 379.088 89.0047 350.92 72.7046C343.763 68.5682 334.605 71.0087 330.464 78.1666C326.324 85.3244 328.768 94.4823 335.922 98.6226C384.909 126.966 415.341 179.691 415.341 236.217C415.341 323.803 344.082 395.058 256.5 395.058C168.913 395.058 97.6582 323.803 97.6582 236.217C97.6582 179.687 128.091 126.966 177.077 98.6226C184.235 94.4823 186.679 85.3244 182.543 78.1666C178.403 71.0087 169.241 68.5682 162.087 72.7046C133.915 89.0047 110.29 112.443 93.7596 140.486C76.7226 169.39 67.7168 202.494 67.7168 236.217C67.7168 323.016 126.609 396.31 206.527 418.271C197.814 427.132 189.833 438.411 182.831 451.935C179.03 459.28 181.904 468.313 189.249 472.114C196.59 475.916 205.623 473.042 209.424 465.697C222.808 439.834 239.97 425 256.5 425C273.034 425 290.195 439.834 303.583 465.701C306.242 470.84 311.47 473.791 316.889 473.791C319.205 473.791 321.56 473.249 323.759 472.111C331.104 468.313 333.973 459.276 330.172 451.935C323.17 438.407 315.19 427.128 306.476 418.271C386.394 396.31 445.283 323.016 445.283 236.217Z" fill="#00B44B"/>
<path d="M445.283 236.217C445.283 202.494 436.277 169.39 419.244 140.486C402.714 112.443 379.088 89.0047 350.921 72.7046C343.763 68.5682 334.605 71.0087 330.465 78.1666C326.324 85.3244 328.769 94.4823 335.923 98.6226C384.909 126.966 415.342 179.691 415.342 236.217C415.342 323.803 344.083 395.058 256.5 395.058V425C273.034 425 290.192 439.834 303.58 465.701C306.243 470.84 311.471 473.791 316.89 473.791C319.205 473.791 321.56 473.249 323.759 472.111C331.1 468.313 333.973 459.276 330.172 451.935C323.17 438.407 315.19 427.128 306.476 418.271C386.394 396.31 445.283 323.016 445.283 236.217Z" fill="#00884A"/>
<path d="M158.979 285.531L153.242 296.907L140.407 298.738C138.105 299.064 137.183 301.84 138.852 303.429L148.138 312.28L145.942 324.782C145.546 327.042 147.98 328.735 150.018 327.678L161.5 321.775L172.982 327.678C175.02 328.726 177.454 327.042 177.058 324.782L174.862 312.28L184.148 303.429C185.817 301.84 184.895 299.064 182.593 298.738L169.758 296.907L164.021 285.531C162.993 283.503 160.015 283.477 158.979 285.531Z" fill="#FFCF00"/>
<path d="M253.979 343.531L248.242 354.907L235.407 356.738C233.105 357.064 232.183 359.84 233.852 361.429L243.138 370.28L240.942 382.782C240.546 385.042 242.98 386.735 245.018 385.678L256.5 379.775L267.982 385.678C270.02 386.726 272.454 385.042 272.058 382.782L269.862 370.28L279.148 361.429C280.817 359.84 279.895 357.064 277.593 356.738L264.758 354.907L259.021 343.531C257.993 341.503 255.015 341.477 253.979 343.531Z" fill="#FFCF00"/>
<path d="M348.979 285.531L343.242 296.907L330.407 298.738C328.105 299.064 327.183 301.84 328.852 303.429L338.138 312.28L335.942 324.782C335.546 327.042 337.98 328.735 340.018 327.678L351.5 321.775L362.982 327.678C365.02 328.726 367.454 327.042 367.058 324.782L364.862 312.28L374.148 303.429C375.817 301.84 374.895 299.064 372.593 298.738L359.758 296.907L354.021 285.531C352.993 283.503 350.015 283.477 348.979 285.531Z" fill="#FFCF00"/>
</g>
<rect x="255.989" y="93" width="175.348" height="175.348" rx="24" transform="rotate(45 255.989 93)" fill="url(#paint0_linear)"/>
<path d="M249.151 155.557L232.429 189.429L195.017 194.878C188.307 195.85 185.619 204.113 190.484 208.846L217.551 235.196L211.149 272.419C209.997 279.147 217.09 284.187 223.031 281.04L256.5 263.465L289.969 281.04C295.91 284.162 303.003 279.147 301.851 272.419L295.449 235.196L322.516 208.846C327.381 204.113 324.693 195.85 317.983 194.878L280.571 189.429L263.849 155.557C260.853 149.519 252.172 149.443 249.151 155.557Z" fill="#FFE266"/>
<path d="M250.528 171.374L238.079 196.455L210.224 200.49C205.229 201.209 203.227 207.328 206.849 210.832L227.002 230.344L222.235 257.906C221.377 262.888 226.658 266.619 231.082 264.29L256 251.276L280.918 264.29C285.342 266.601 290.623 262.888 289.765 257.906L284.998 230.344L305.151 210.832C308.773 207.328 306.771 201.209 301.776 200.49L273.921 196.455L261.472 171.374C259.241 166.904 252.778 166.847 250.528 171.374Z" fill="#FFCF00"/>
<defs>
<linearGradient id="paint0_linear" x1="424.995" y1="99.3564" x2="255.997" y2="268.355" gradientUnits="userSpaceOnUse">
<stop offset="0.473958" stop-color="#80D398"/>
<stop offset="0.474058" stop-color="#00B44B"/>
</linearGradient>
<clipPath id="clip0">
<rect x="1" width="511" height="511" fill="white"/>
</clipPath>
</defs>
</svg>
