<svg width="1024" height="1024" viewBox="0 0 1024 1024" fill="none" xmlns="http://www.w3.org/2000/svg">
<path d="M377.5 293.001C488.745 293.001 579 262.956 579 226.001C579 189.046 488.745 159 377.5 159C266.255 159 176 189.046 176 226.001C176 262.956 266.255 293.001 377.5 293.001ZM478.25 485C538.385 473.38 579 451.814 579 427.003V382.301C554.652 399.469 518.865 411.195 478.25 418.418V485ZM473.317 385.441C536.286 374.135 579 351.941 579 326.502V281.8C541.743 308.076 477.725 322.209 410.349 325.559C441.308 340.53 464.082 360.63 473.317 385.441Z" fill="#FFC107" fill-opacity="0.5"/>
<path d="M42 628.909V584.147C85.3435 614.652 164.579 628.909 243.5 628.909C322.421 628.909 401.656 614.652 445 584.147V628.909C445 665.914 354.745 696 243.5 696C132.255 696 42 665.914 42 628.909Z" fill="#FFC107"/>
<path d="M42 528.273V474.181C85.3435 509.823 164.684 528.273 243.5 528.273C322.316 528.273 401.656 509.823 445 474.181V528.273C445 565.278 354.745 595.364 243.5 595.364C132.255 595.364 42 565.278 42 528.273Z" fill="#FFC107"/>
<path d="M42 410.864C42 364.529 132.255 327 243.5 327C354.745 327 445 364.529 445 410.864C445 457.198 354.745 494.727 243.5 494.727C132.255 494.727 42 457.198 42 410.864Z" fill="#FFC107"/>
<path d="M780.5 461.001C891.745 461.001 982 430.956 982 394.001C982 357.046 891.745 327 780.5 327C669.255 327 579 357.046 579 394.001C579 430.956 669.255 461.001 780.5 461.001ZM881.25 653C941.385 641.38 982 619.814 982 595.003V550.301C957.652 567.469 921.865 579.195 881.25 586.418V653ZM876.317 553.441C939.286 542.135 982 519.941 982 494.502V449.8C944.743 476.076 880.725 490.209 813.349 493.559C844.308 508.53 867.082 528.63 876.317 553.441Z" fill="#FFC107" fill-opacity="0.5"/>
<path d="M445 796.909V752.147C488.343 782.652 567.579 796.909 646.5 796.909C725.421 796.909 804.656 782.652 848 752.147V796.909C848 833.914 757.745 864 646.5 864C535.255 864 445 833.914 445 796.909Z" fill="#FFC107"/>
<path d="M445 696.273V642.181C488.343 677.823 567.684 696.273 646.5 696.273C725.316 696.273 804.656 677.823 848 642.181V696.273C848 733.278 757.745 763.364 646.5 763.364C535.255 763.364 445 733.278 445 696.273Z" fill="#FFC107"/>
<path d="M445 578.864C445 532.529 535.255 495 646.5 495C757.745 495 848 532.529 848 578.864C848 625.198 757.745 662.727 646.5 662.727C535.255 662.727 445 625.198 445 578.864Z" fill="#FFC107"/>
</svg>
