<svg width="512" height="512" viewBox="0 0 512 512" fill="none" xmlns="http://www.w3.org/2000/svg">
<path d="M320 128C426 128 512 99.3 512 64C512 28.7 426 0 320 0C214 0 128 28.7 128 64C128 99.3 214 128 320 128ZM416 311.4C473.3 300.3 512 279.7 512 256V213.3C488.8 229.7 454.7 240.9 416 247.8V311.4ZM411.3 216.3C471.3 205.5 512 184.3 512 160V117.3C476.5 142.4 415.5 155.9 351.3 159.1C380.8 173.4 402.5 192.6 411.3 216.3Z" fill="#FFC107" fill-opacity="0.5"/>
<path d="M0 448V405.3C41.3 434.4 116.8 448 192 448C267.2 448 342.7 434.4 384 405.3V448C384 483.3 298 512 192 512C86 512 0 483.3 0 448Z" fill="#FFC107"/>
<path d="M0 352V300.4C41.3 334.4 116.9 352 192 352C267.1 352 342.7 334.4 384 300.4V352C384 387.3 298 416 192 416C86 416 0 387.3 0 352Z" fill="#FFC107"/>
<path d="M0 240C0 195.8 86 160 192 160C298 160 384 195.8 384 240C384 284.2 298 320 192 320C86 320 0 284.2 0 240Z" fill="#FFC107"/>
</svg>
