<svg width="512" height="512" viewBox="0 0 512 512" fill="none" xmlns="http://www.w3.org/2000/svg">
<g clip-path="url(#clip0)">
<path d="M414.697 198.3L501.584 111.412L399.66 9.48828L312.776 96.3727C297.87 111.279 276.146 117.228 255.781 111.78C188.033 93.6551 112.741 111.144 59.5647 164.266C-19.0906 242.841 -19.6046 371.365 58.4513 450.536C137.683 530.9 267.064 531.248 346.731 451.582C399.856 398.458 417.389 323.231 399.351 255.506C393.904 235.06 399.734 213.262 414.697 198.3V198.3Z" fill="url(#paint0_linear)"/>
<path d="M203.11 511.074C315.285 511.074 406.221 420.139 406.221 307.964C406.221 195.789 315.285 104.854 203.11 104.854C90.9356 104.854 0 195.789 0 307.964C0 420.139 90.9356 511.074 203.11 511.074Z" fill="url(#paint1_linear)"/>
<path d="M62.9177 189.182C35.8148 221.14 19.479 262.511 19.479 307.692C19.47 408.959 101.565 491.054 202.831 491.044C279.485 491.051 345.148 444.019 372.537 377.233C385.915 344.612 372.432 306.999 341.313 290.424C341.149 290.336 340.983 290.249 340.818 290.161C281.554 258.714 222.225 263.707 221.974 263.717L71.8044 180.426L62.9177 189.182Z" fill="url(#paint2_linear)"/>
<path d="M221.983 263.722C221.983 263.722 176.706 276.319 134.791 254.078C92.8765 231.837 63.9576 200.095 70.1979 183.18C76.4383 166.265 115.475 170.582 157.39 192.823C199.304 215.064 221.983 263.722 221.983 263.722V263.722Z" fill="url(#paint3_linear)"/>
<path d="M253.563 238.765C251.732 238.765 249.898 238.331 248.259 237.511C243.305 235.032 233.633 229.716 224.508 221.967C212.638 211.887 205.602 201.066 203.596 189.806C202.038 181.06 204.263 172.131 209.699 165.309C214.735 158.991 221.87 155.299 229.791 154.913C230.256 154.89 230.728 154.879 231.193 154.879C238.614 154.879 245.619 157.739 250.919 162.932C251.877 163.87 252.759 164.866 253.562 165.91C254.367 164.865 255.249 163.87 256.207 162.931C261.507 157.738 268.512 154.879 275.933 154.879C276.398 154.879 276.87 154.89 277.335 154.913C285.256 155.3 292.391 158.991 297.427 165.31C302.864 172.131 305.088 181.06 303.53 189.806C301.524 201.065 294.488 211.886 282.619 221.966C273.494 229.715 263.823 235.031 258.868 237.51C257.229 238.331 255.395 238.765 253.563 238.765V238.765Z" fill="url(#paint4_linear)"/>
<path d="M253.563 232.582C252.252 232.582 250.938 232.282 249.763 231.714C245.173 229.497 236.211 224.744 227.772 217.827C217.007 209.004 210.642 199.617 208.853 189.928C207.512 182.669 209.421 175.265 214.087 169.614C218.365 164.434 224.418 161.407 231.134 161.091C231.531 161.072 231.934 161.062 232.33 161.062C238.648 161.062 244.611 163.413 249.123 167.678C249.933 168.444 250.691 169.269 251.377 170.129L253.564 172.872L255.752 170.129C256.439 169.269 257.197 168.443 258.007 167.678C262.517 163.412 268.482 161.062 274.799 161.062C275.196 161.062 275.598 161.072 275.996 161.091C282.711 161.407 288.765 164.434 293.043 169.614C297.709 175.265 299.616 182.669 298.277 189.928C296.489 199.617 290.124 209.004 279.359 217.827C270.919 224.745 261.957 229.498 257.367 231.714C256.19 232.283 254.875 232.582 253.563 232.582V232.582Z" fill="url(#paint5_linear)"/>
<path d="M297.427 165.31C295.539 162.942 293.357 160.943 290.948 159.348C295.345 165.876 297.049 173.969 295.635 181.912C293.629 193.171 286.593 203.991 274.724 214.071C265.599 221.821 255.928 227.136 250.973 229.615C249.334 230.435 247.5 230.869 245.669 230.869C243.837 230.869 242.003 230.435 240.364 229.615C235.41 227.136 225.738 221.821 216.613 214.071C216.223 213.739 215.837 213.407 215.457 213.073C218.07 216.093 221.087 219.061 224.508 221.966C233.633 229.716 243.305 235.031 248.259 237.51C249.898 238.33 251.732 238.764 253.563 238.764C255.395 238.764 257.229 238.33 258.868 237.51C263.822 235.031 273.494 229.716 282.619 221.966C294.489 211.886 301.525 201.066 303.53 189.807C305.089 181.06 302.864 172.132 297.427 165.31Z" fill="url(#paint6_linear)"/>
<path d="M277.336 154.915C276.87 154.892 276.399 154.881 275.934 154.881C268.513 154.881 261.506 157.741 256.208 162.933C255.251 163.871 254.369 164.867 253.564 165.911V238.765C255.396 238.765 257.23 238.331 258.869 237.511C263.823 235.032 273.495 229.716 282.62 221.967C294.49 211.887 301.526 201.066 303.532 189.807C305.09 181.061 302.866 172.132 297.429 165.311C292.392 158.993 285.256 155.3 277.336 154.915V154.915Z" fill="url(#paint7_linear)"/>
<path d="M329.467 275.962C345.506 275.962 358.508 262.96 358.508 246.921C358.508 230.883 345.506 217.881 329.467 217.881C313.429 217.881 300.427 230.883 300.427 246.921C300.427 262.96 313.429 275.962 329.467 275.962Z" fill="url(#paint8_linear)"/>
<path d="M329.467 271.208C342.88 271.208 353.754 260.335 353.754 246.922C353.754 233.508 342.88 222.635 329.467 222.635C316.054 222.635 305.18 233.508 305.18 246.922C305.18 260.335 316.054 271.208 329.467 271.208Z" fill="url(#paint9_linear)"/>
<path d="M351.413 156.239C363.533 156.239 373.358 146.414 373.358 134.293C373.358 122.173 363.533 112.348 351.413 112.348C339.292 112.348 329.467 122.173 329.467 134.293C329.467 146.414 339.292 156.239 351.413 156.239Z" fill="url(#paint10_linear)"/>
<path d="M351.413 152.647C361.549 152.647 369.765 144.43 369.765 134.294C369.765 124.158 361.549 115.941 351.413 115.941C341.277 115.941 333.06 124.158 333.06 134.294C333.06 144.43 341.277 152.647 351.413 152.647Z" fill="url(#paint11_linear)"/>
<path d="M203.11 491.324C304.378 491.324 386.472 409.23 386.472 307.963C386.472 206.695 304.378 124.602 203.11 124.602C101.843 124.602 19.749 206.695 19.749 307.963C19.749 409.23 101.843 491.324 203.11 491.324Z" fill="url(#paint12_linear)"/>
<path d="M347.269 241.131L269.943 163.805L411.959 21.7891L489.285 99.1151L347.269 241.131Z" fill="url(#paint13_linear)"/>
<path d="M479.616 128.684L384.244 33.3112C379.365 28.4322 379.365 20.5203 384.244 15.6412L395.298 4.58703C400.177 -0.292031 408.089 -0.292031 412.968 4.58703L508.342 99.9606C513.221 104.84 513.221 112.752 508.342 117.631L497.287 128.685C492.407 133.563 484.495 133.563 479.616 128.684Z" fill="url(#paint14_linear)"/>
</g>
<defs>
<linearGradient id="paint0_linear" x1="250.964" y1="83.2422" x2="250.964" y2="527.504" gradientUnits="userSpaceOnUse">
<stop stop-color="#F8F6FB"/>
<stop offset="1" stop-color="#EFDCFB"/>
</linearGradient>
<linearGradient id="paint1_linear" x1="203.17" y1="370.526" x2="203.17" y2="576.463" gradientUnits="userSpaceOnUse">
<stop stop-color="#EFDCFB" stop-opacity="0"/>
<stop offset="0.4856" stop-color="#BAAAD6" stop-opacity="0.486"/>
<stop offset="1" stop-color="#8679B2"/>
</linearGradient>
<linearGradient id="paint2_linear" x1="113.913" y1="351.252" x2="-10.5117" y2="398.448" gradientUnits="userSpaceOnUse">
<stop stop-color="#FF819C"/>
<stop offset="0.2594" stop-color="#FF7E9A"/>
<stop offset="0.4757" stop-color="#FE7396"/>
<stop offset="0.6765" stop-color="#FC628E"/>
<stop offset="0.8668" stop-color="#FA4A83"/>
<stop offset="1" stop-color="#F83479"/>
</linearGradient>
<linearGradient id="paint3_linear" x1="165.255" y1="196.261" x2="110.247" y2="269.226" gradientUnits="userSpaceOnUse">
<stop stop-color="#FF819C"/>
<stop offset="0.2594" stop-color="#FF7E9A"/>
<stop offset="0.4757" stop-color="#FE7396"/>
<stop offset="0.6765" stop-color="#FC628E"/>
<stop offset="0.8668" stop-color="#FA4A83"/>
<stop offset="1" stop-color="#F83479"/>
</linearGradient>
<linearGradient id="paint4_linear" x1="245.24" y1="175.246" x2="280.512" y2="219.286" gradientUnits="userSpaceOnUse">
<stop stop-color="#FF819C"/>
<stop offset="0.2594" stop-color="#FF7E9A"/>
<stop offset="0.4757" stop-color="#FE7396"/>
<stop offset="0.6765" stop-color="#FC628E"/>
<stop offset="0.8668" stop-color="#FA4A83"/>
<stop offset="1" stop-color="#F83479"/>
</linearGradient>
<linearGradient id="paint5_linear" x1="264.197" y1="210.429" x2="188.413" y2="33.8275" gradientUnits="userSpaceOnUse">
<stop stop-color="white" stop-opacity="0"/>
<stop offset="1" stop-color="white"/>
</linearGradient>
<linearGradient id="paint6_linear" x1="263.718" y1="207.768" x2="282.906" y2="263.899" gradientUnits="userSpaceOnUse">
<stop stop-color="#F82814" stop-opacity="0"/>
<stop offset="1" stop-color="#C0272D"/>
</linearGradient>
<linearGradient id="paint7_linear" x1="261.907" y1="188.073" x2="215.481" y2="140.736" gradientUnits="userSpaceOnUse">
<stop stop-color="#F82814" stop-opacity="0"/>
<stop offset="1" stop-color="#C0272D"/>
</linearGradient>
<linearGradient id="paint8_linear" x1="329.507" y1="225.85" x2="329.508" y2="288.943" gradientUnits="userSpaceOnUse">
<stop stop-color="#FF819C"/>
<stop offset="0.2594" stop-color="#FF7E9A"/>
<stop offset="0.4757" stop-color="#FE7396"/>
<stop offset="0.6765" stop-color="#FC628E"/>
<stop offset="0.8668" stop-color="#FA4A83"/>
<stop offset="1" stop-color="#F83479"/>
</linearGradient>
<linearGradient id="paint9_linear" x1="329.508" y1="246.983" x2="329.508" y2="173.955" gradientUnits="userSpaceOnUse">
<stop stop-color="white" stop-opacity="0"/>
<stop offset="1" stop-color="white"/>
</linearGradient>
<linearGradient id="paint10_linear" x1="351.449" y1="118.345" x2="351.449" y2="166.025" gradientUnits="userSpaceOnUse">
<stop stop-color="#FF819C"/>
<stop offset="0.2594" stop-color="#FF7E9A"/>
<stop offset="0.4757" stop-color="#FE7396"/>
<stop offset="0.6765" stop-color="#FC628E"/>
<stop offset="0.8668" stop-color="#FA4A83"/>
<stop offset="1" stop-color="#F83479"/>
</linearGradient>
<linearGradient id="paint11_linear" x1="351.449" y1="134.317" x2="351.45" y2="79.1297" gradientUnits="userSpaceOnUse">
<stop stop-color="white" stop-opacity="0"/>
<stop offset="1" stop-color="white"/>
</linearGradient>
<linearGradient id="paint12_linear" x1="203.169" y1="335.938" x2="203.169" y2="-21.2456" gradientUnits="userSpaceOnUse">
<stop stop-color="white" stop-opacity="0"/>
<stop offset="1" stop-color="white"/>
</linearGradient>
<linearGradient id="paint13_linear" x1="376.543" y1="112.347" x2="361.999" y2="23.4683" gradientUnits="userSpaceOnUse">
<stop stop-color="white" stop-opacity="0"/>
<stop offset="1" stop-color="white"/>
</linearGradient>
<linearGradient id="paint14_linear" x1="455.276" y1="57.5337" x2="428.393" y2="84.4171" gradientUnits="userSpaceOnUse">
<stop stop-color="#F8F6FB"/>
<stop offset="1" stop-color="#EFDCFB"/>
</linearGradient>
<clipPath id="clip0">
<rect width="512" height="512" fill="white"/>
</clipPath>
</defs>
</svg>
