<svg width="512" height="512" viewBox="0 0 512 512" fill="none" xmlns="http://www.w3.org/2000/svg">
<path d="M254.9 293.401C327.9 294.001 387.2 234.701 386.6 161.601C386 91.7006 326.9 32.6006 257.1 32.0006C184.1 31.4006 124.8 90.7006 125.4 163.801C126 233.701 185.1 292.801 254.9 293.401V293.401ZM251.2 89.3006C295.5 86.5006 332.1 123.101 329.3 167.501C327 204.101 297.4 233.701 260.8 236.101C216.5 238.901 179.9 202.301 182.7 157.901C185 121.301 214.6 91.7006 251.2 89.3006Z" fill="#FFC107"/>
<path d="M256 308.399C213.2 308.399 174.6 290.299 147.5 261.399C145.6 259.399 142.3 259.699 140.9 262.099L65.1002 394.799C62.0002 400.299 65.9002 407.099 72.3002 407.099H152.4C155.3 407.099 158 408.599 159.5 411.099L198.5 475.999C201.9 481.699 210.3 481.199 213.1 475.199L256.1 380.599L287.4 311.699C288.8 308.699 286.2 305.399 282.9 305.999C274.1 307.499 265.2 308.399 256 308.399V308.399ZM364.5 261.299C349.9 276.799 332.1 289.299 312 297.399C311 297.799 310.2 298.499 309.8 299.499L265.1 397.199C264.6 398.299 264.6 399.499 265.1 400.599L299 475.099C301.7 481.099 310.2 481.599 313.6 475.899L352.6 410.999C354.1 408.499 356.8 406.999 359.7 406.999H439.8C446.1 406.999 450.1 400.199 447 394.699L371.2 261.899C369.7 259.699 366.4 259.299 364.5 261.299V261.299Z" fill="#2196F3"/>
<path d="M364.501 261.299C349.901 276.799 332.101 289.299 312.001 297.399C311.001 297.799 310.201 298.499 309.801 299.499L265.101 397.199C264.601 398.299 264.601 399.499 265.101 400.599L299.001 475.099C301.701 481.099 310.201 481.599 313.601 475.899L352.601 410.999C354.101 408.499 356.801 406.999 359.701 406.999H439.801C446.101 406.999 450.101 400.199 447.001 394.699L371.201 261.899C369.701 259.699 366.401 259.299 364.501 261.299Z" fill="#1976D2"/>
</svg>
