<svg width="512" height="512" viewBox="0 0 512 512" fill="none" xmlns="http://www.w3.org/2000/svg">
<path d="M64 368V325.3C105.3 354.4 180.8 368 256 368C331.2 368 406.7 354.4 448 325.3V368C448 403.3 362 432 256 432C150 432 64 403.3 64 368Z" fill="#FFC107"/>
<path d="M64 272V220.4C105.3 254.4 180.9 272 256 272C331.1 272 406.7 254.4 448 220.4V272C448 307.3 362 336 256 336C150 336 64 307.3 64 272Z" fill="#FFC107"/>
<path d="M64 160C64 115.8 150 80 256 80C362 80 448 115.8 448 160C448 204.2 362 240 256 240C150 240 64 204.2 64 160Z" fill="#FFC107"/>
</svg>
